<svg version="1.1" xmlns="http://www.w3.org/2000/svg" xmlns:xlink="http://www.w3.org/1999/xlink" viewBox="0 0 172 172"><g fill="none" fill-rule="nonzero" stroke="none" stroke-width="1" stroke-linecap="butt" stroke-linejoin="miter" stroke-miterlimit="10" stroke-dasharray="" stroke-dashoffset="0" font-family="none" font-weight="none" font-size="none" text-anchor="none" style="mix-blend-mode: normal"><path d="M0,172v-172h172v172z" fill="none"></path><g><path d="M143.33333,35.83333h-114.66667c-7.91558,0 -14.33333,6.41775 -14.33333,14.33333v10.75c0,5.28183 2.9025,9.85417 7.16667,12.341v62.909c0,7.91558 6.41775,14.33333 14.33333,14.33333h100.33333c7.91558,0 14.33333,-6.41775 14.33333,-14.33333v-62.909c4.26417,-2.48683 7.16667,-7.05917 7.16667,-12.341v-10.75c0,-7.91558 -6.41775,-14.33333 -14.33333,-14.33333z" fill="#babffc"></path><path d="M139.75,75.25h-107.5c-1.98158,0 -3.58333,-1.60533 -3.58333,-3.58333c0,-1.978 1.60175,-3.58333 3.58333,-3.58333h107.5c1.98158,0 3.58333,1.60533 3.58333,3.58333c0,1.978 -1.60175,3.58333 -3.58333,3.58333z" fill="#324561"></path><path d="M71.66667,39.41667h-8.95833c-8.89025,0 -16.125,-7.23475 -16.125,-16.125c0,-8.89025 7.23475,-16.125 16.125,-16.125c14.74183,0 24.68917,12.31233 26.7675,20.62925c0.48375,1.92067 -0.68442,3.86642 -2.60867,4.34658c-1.92067,0.48375 -3.86283,-0.688 -4.343,-2.60867c-1.32583,-5.29975 -8.49967,-15.2005 -19.81583,-15.2005c-4.94142,0 -8.95833,4.0205 -8.95833,8.95833c0,4.93783 4.01692,8.95833 8.95833,8.95833h8.95833c1.98158,0 3.58333,1.60533 3.58333,3.58333c0,1.978 -1.60175,3.58333 -3.58333,3.58333z" fill="#324561"></path><path d="M109.29167,39.41667h-8.95833c-1.98158,0 -3.58333,-1.60533 -3.58333,-3.58333c0,-1.978 1.60175,-3.58333 3.58333,-3.58333h8.95833c4.94142,0 8.95833,-4.0205 8.95833,-8.95833c0,-4.93783 -4.01692,-8.95833 -8.95833,-8.95833c-11.31617,0 -18.49,9.90075 -19.81583,15.20408c-0.48017,1.91708 -2.42233,3.09242 -4.343,2.60867c-1.92067,-0.48017 -3.08883,-2.42592 -2.60867,-4.34658c2.07833,-8.3205 12.02567,-20.63283 26.7675,-20.63283c8.89025,0 16.125,7.23475 16.125,16.125c0,8.89025 -7.23475,16.125 -16.125,16.125z" fill="#324561"></path></g></g></svg>